<svg xmlns="http://www.w3.org/2000/svg" width="128.876" height="140.922"><path data-name="Path 63" d="M68.45 11.591h60.427v7.369h-5.335v75.524h5.335v7.369H96.268l7.781 37.465-7.118 1.517-5.156-24.827h-22.9v24.914h-7.277v-24.914h-22.9l-5.13 24.689-7.118-1.517 7.752-37.326H.002v-7.37h5.335V18.96H0v-7.369h61.174V0h7.275zm-6.851 90.262H41.638l-1.409 6.786h21.37zm27.235 0h-19.96v6.786h21.37zM12.61 94.484h103.658V18.96H12.61zM96.036 82.73H61.02v-15.3H30.968v-38.6H96.04zm-27.741-7.363h20.467v-7.936H68.295zm-30.057-15.3h22.787V36.199H38.238zm30.057 0h20.467V36.199H68.295z" fill="#707070" fill-rule="evenodd"/></svg>