<svg xmlns="http://www.w3.org/2000/svg" width="71.728" height="86.998"><path data-name="Path 62" d="M.001 86.998v-4.543h5.217V14.591h4.354v-4.484h7.891V0h4.539v10.107h7.876v4.484h4.361v6.585h3.251v-6.585h4.363v-4.484h7.876V0h4.539v10.107h7.893v4.484h4.354v67.864h5.216v4.539zm29.7-63.229H9.753v58.686h7.739v-9.717h4.541v9.717h7.668zm32.273 58.686V23.769H42.029v58.686h7.667v-9.717h4.539v9.717zm-27.735 0h3.25V70.22h-3.25zm0-16.778h3.25V25.715h-3.25zm-16.744-1.87h4.538v-4.49h-4.538zm32.2 0h4.539v-4.49h-4.538zm-32.2-7.393h4.538v-4.49h-4.538zm32.2 0h4.539v-4.49h-4.538zm-32.2-11.072h4.538v-4.487h-4.538zm32.2 0h4.539v-4.487h-4.538zm-32.164-7.217h4.539v-4.49h-4.539zm32.129 0h4.539v-4.49H49.66zm-32.129-6.982h4.539v-4.488h-4.539zm32.129 0h4.539v-4.488H49.66zM22.002 19.23h7.7v-4.585h-7.7zm-12.249 0h7.71v-4.585h-7.71zm32.273 0h7.7v-4.585h-7.7zm12.237 0h7.708v-4.585h-7.706z" fill="#707070" fill-rule="evenodd"/></svg>