<svg xmlns="http://www.w3.org/2000/svg" width="81.471" height="80.428"><path data-name="Path 64" d="M78.699 80.427H65.121v-4.525H43.686V53.001l-3.737.829-6.381-7.855-14.095 3.129-1.775-7.991-12.421 7.392L0 24.725l14.383 1.444-.938-4.228-8.828-6.625L73.63 0l7.842 35.344-18.663 4.142-2.458 9.817-3.086.686v12.336h7.858V57.8h13.578zm-9.052-4.525h4.525V62.325h-4.525zm-16.909-9.458V50.993l-4.526 1v19.38h16.909v-4.518H52.738v-.41zm5.134-25.861l-19.362 4.3 3.188 3.928 14.942-3.316zm-34.96 3.122l15.08-3.35-18.988-14.241a51299.2 51299.2 0 0 0 3.908 17.591zM8.338 41.416l8.327-4.956-1.253-5.641-9.638-.968zM70.192 5.398L15.203 17.602l28.605 21.466 32.267-7.161zM32.854 18.233a2.562 2.562 0 1 1-2.562 2.562 2.563 2.563 0 0 1 2.562-2.562z" fill="#707070" fill-rule="evenodd"/></svg>