<svg data-name="Group 669" xmlns="http://www.w3.org/2000/svg" width="591.383" height="255.687"><path data-name="Path 3600" d="M212.1 255.686h-7.9l27.643-137.643 14.042-6-9.654 41.98q10.825-21.789 20.406-31.372t20.99-9.581q8.776 0 13.9 6.436t5.12 17.7a65.028 65.028 0 0 1-4.608 23.4 74.778 74.778 0 0 1-12.945 21.795q-15.066 18.138-33.2 18.138-11.409 0-18.723-6zM329.7 153.88q10.239-19.747 21.5-29.4t22.088-9.654a19.453 19.453 0 0 1 8.045 1.463 13.159 13.159 0 0 1 5.193 4.1 16.1 16.1 0 0 1 2.779 6.29 38.25 38.25 0 0 1 .8 8.191 57.1 57.1 0 0 1-1.755 13.384 84.888 84.888 0 0 1-4.967 14.48 91.347 91.347 0 0 1-7.753 13.969 68.993 68.993 0 0 1-10.093 11.921 48.608 48.608 0 0 1-12.068 8.337 30.744 30.744 0 0 1-13.53 3.145 29.929 29.929 0 0 1-6.29-.8 14.9 14.9 0 0 1-6.948-3.876 23.6 23.6 0 0 1-5.559-9.215q-2.267-6.144-2.267-16.968a159.7 159.7 0 0 1 1.316-19.747q1.317-10.531 4.388-24.281-1.9.292-4.973.512t-6 .219l.585-3.949q2.779 0 6.07-.293a24.482 24.482 0 0 0 5.485-1.024 304.07 304.07 0 0 1 12.361-38.909 206.521 206.521 0 0 1 16.382-33.2q9-14.481 19.089-23.184t20.332-8.7a15.726 15.726 0 0 1 7.241 1.536 13.52 13.52 0 0 1 4.826 4.023 16.99 16.99 0 0 1 2.7 5.778 26.269 26.269 0 0 1 .88 6.8 49.464 49.464 0 0 1-3 16.529 81.691 81.691 0 0 1-8.328 16.807A126.082 126.082 0 0 1 385.8 84.4a170.907 170.907 0 0 1-15.285 14.993 173.138 173.138 0 0 1-17.045 13.019 152.241 152.241 0 0 1-17.48 10.166q-.877 3.365-1.755 7.314t-1.755 8.118q-.877 4.169-1.609 8.264t-1.171 7.606zm-128.135 21.064l2.635 2.19q-9.069 11.994-17.7 17.333a34.683 34.683 0 0 1-18.577 5.339q-11.848 0-19.015-7.9t-7.168-20.917q0-13.164 6.948-26.695a71.862 71.862 0 0 1 17.406-22.38q10.459-8.85 20.7-8.85a14.147 14.147 0 0 1 9.873 3.511 11.674 11.674 0 0 1 3.876 9.069q0 11.263-12.287 22.526t-33.499 19.164a21.433 21.433 0 0 0-.146 2.633q0 10.093 5.558 16.456a18.159 18.159 0 0 0 14.335 6.363 23.6 23.6 0 0 0 13.311-4.315q6.436-4.312 13.75-13.527zm292.257-62.9l-12.875 48.126q-3.216 11.848-3.218 19.015a15.706 15.706 0 0 0 1.611 7.606q1.6 2.926 4.239 2.925 4.536 0 14.481-10.824l2.341 2.048-1.461 1.609q-8.339 9.8-12.289 13.238t-7.311 3.437q-4.536 0-7.683-4.608a19.915 19.915 0 0 1-3.145-11.482 86.1 86.1 0 0 1 1.756-13.9l9.217-51.2zm-45.2 28.524a27.762 27.762 0 0 1 6 .585 10.409 10.409 0 0 1 4.538 2.194 9.69 9.69 0 0 1 2.84 4.463 23.265 23.265 0 0 1 .953 7.241 35.1 35.1 0 0 1-3.73 15.139 58.454 58.454 0 0 1-9.584 14.262 54.177 54.177 0 0 1-13.088 10.6 28.23 28.23 0 0 1-14.118 4.169q-7.461 0-11.922-4.315t-4.461-11.482a76.778 76.778 0 0 1 1.611-13.6l9.947-51.781 13.746-6-13.154 51.199q7.9-11.848 15.8-17.26t14.622-5.413zm89.519-28.524l-14.19 56.608a54.654 54.654 0 0 0-1.9 12.872 10.8 10.8 0 0 0 3.218 8.191 11.585 11.585 0 0 0 8.341 3.072q12.432 0 25.89-20.332l.585-.877q.291-1.463.436-2.341l9.217-51.2 14.336-6L571.2 160.17q-3.216 11.848-3.218 19.015a15.707 15.707 0 0 0 1.611 7.606c1.07 1.95 2.487 2.925 4.239 2.925q4.536 0 14.481-10.824l2.341 2.048-1.461 1.609q-8.339 9.8-12.289 13.238t-7.311 3.437q-4.536 0-7.679-4.608a19.885 19.885 0 0 1-3.145-11.482q0-2.194.145-4.1-15.212 20.185-30.133 20.186-7.461 0-11.922-4.315t-4.459-11.477a71.265 71.265 0 0 1 1.611-13.6l9.943-51.781zM25.89 197.616H13.457l.877-2.926q9.655-33.35 21.795-92.883 4.681-22.38 8.191-42.127 4.827-26.475 4.827-36.861a37.187 37.187 0 0 0-1.17-9.727 14.813 14.813 0 0 0-3.291-6.509 6.779 6.779 0 0 0-5.046-2.194q-11.848 0-19.893 29.255a258.787 258.787 0 0 0-8.337 40.518L0 66.262a158.736 158.736 0 0 1 9.069-33.716q6.143-15.432 13.9-23.989T38.621 0q9.361 0 14.7 10.093t5.335 27.941a207.073 207.073 0 0 1-2.779 32.18q-1.9 11.994-4.1 23.843l-7.456 35.977 1.317-3.218q12.725-31.007 24.354-53.682t21.721-36.712q18.138-24.72 33.643-24.72a15.236 15.236 0 0 1 11.775 5.046q4.607 5.046 4.608 13.092a88.49 88.49 0 0 1-2.487 18.138l-32.911 149.638H92.3l33.5-152.125q2.048-9.069 2.048-13.457a12.034 12.034 0 0 0-2.413-7.9 8.159 8.159 0 0 0-6.656-2.925q-13.018 0-30.863 28.962-7.026 11.263-14.999 26.915t-14.261 29.621q-6.29 13.969-12.726 30.791t-11.409 32.618l-7.753 24.718zm203.466-12.726q6.143 11.995 17.26 11.994 16.09 0 28.084-26.183 9.8-21.064 9.8-35.4 0-7.753-2.925-11.994a9.526 9.526 0 0 0-8.338-4.242q-8.777 0-18.43 11.556a119.567 119.567 0 0 0-15.65 25.453q-2.487 5.558-4.608 11.848t-4.022 12.872zm100.344-6.436a52.561 52.561 0 0 0 .366 6.07 21.367 21.367 0 0 0 1.463 5.778 11.887 11.887 0 0 0 3.072 4.388 7.311 7.311 0 0 0 5.046 1.755 18.217 18.217 0 0 0 10.093-3.145 38.774 38.774 0 0 0 9-8.337 67.461 67.461 0 0 0 7.533-11.848 108.387 108.387 0 0 0 5.774-13.681 103.441 103.441 0 0 0 3.73-13.75 63.221 63.221 0 0 0 1.317-11.995q0-7.021-2.194-10.093t-7.022-3.062a15.476 15.476 0 0 0-7.314 2.267 42.9 42.9 0 0 0-8.338 6.216 70.422 70.422 0 0 0-8.338 9.435 74.767 74.767 0 0 0-12.288 25.521 56.245 56.245 0 0 0-1.9 14.481zm86.011 3.071a12.288 12.288 0 0 0 3.218 8.63q3.216 3.51 9.067 3.511a15.938 15.938 0 0 0 7.9-2.34 25.794 25.794 0 0 0 7.533-6.8 38.472 38.472 0 0 0 5.7-11.117 47.385 47.385 0 0 0 2.271-15.287 18.4 18.4 0 0 0-1.534-8.264q-1.538-3-5.777-3a16.346 16.346 0 0 0-6.362 1.463 26.647 26.647 0 0 0-7.027 4.613 51.251 51.251 0 0 0-7.166 7.972 70.313 70.313 0 0 0-6.8 11.555 45.312 45.312 0 0 0-1.023 9.065zm-260.954-17.7q15.8-7.022 24.282-15.652a53.4 53.4 0 0 0 9.215-12.579q3.51-6.729 3.511-12.141 0-6.875-6.29-6.875-9.508 0-19.235 14.993a71.891 71.891 0 0 0-11.483 32.256zm182.55-46.221a131.2 131.2 0 0 0 24.5-16.895 133.077 133.077 0 0 0 19.674-21.136A102.264 102.264 0 0 0 394.5 56.534a60.772 60.772 0 0 0 4.681-22.453q0-7.168-1.9-10.312t-6.728-3.145a14.59 14.59 0 0 0-8.777 3.291 45.3 45.3 0 0 0-8.63 8.849 103.281 103.281 0 0 0-8.267 12.87q-4.022 7.314-7.679 15.432t-6.8 16.456q-3.145 8.337-5.7 15.871t-4.461 13.823q-1.908 6.293-2.932 10.388zm203.466-50.17a31.714 31.714 0 0 0 11.482 9.727 27.952 27.952 0 0 0 12.067 3.145 54.564 54.564 0 0 0 6.145-.365 20.156 20.156 0 0 0 6.435-1.9 22.653 22.653 0 0 0 6.217-4.535 32.367 32.367 0 0 0 5.632-8.118l2.632 1.463a38.7 38.7 0 0 1-7.461 11.555 38.28 38.28 0 0 1-9.067 7.094 35.381 35.381 0 0 1-9.289 3.584 37.089 37.089 0 0 1-7.824 1.024 30.03 30.03 0 0 1-5.341-.585 42.507 42.507 0 0 1-6.435-1.755 36.051 36.051 0 0 1-6.362-3 18.178 18.178 0 0 1-5.119-4.461z" fill="#243046" fill-rule="evenodd"/></svg>