<svg data-name="Group 99" xmlns="http://www.w3.org/2000/svg" width="82.752" height="87.902"><path data-name="Path 18" d="M36.924 87.902l-5.517-9.555a20.374 20.374 0 0 1-13.668.7 20.654 20.654 0 0 1-12.218-9.222c-10.422-18.055-2.948-41.417-2.623-42.4a2.312 2.312 0 0 1 2.671-1.544c1.018.213 24.986 5.422 35.407 23.477a20.61 20.61 0 0 1 1.882 15.193 20.354 20.354 0 0 1-7.442 11.485l5.517 9.554zM9.524 67.51a32.805 32.805 0 0 1-1.733-3.5l18.135 4.861 3.14 5.434A16.656 16.656 0 0 1 9.529 67.51zm23.552 4.477l-3.135-5.432 4.862-18.135a32.119 32.119 0 0 1 2.159 3.25 16.652 16.652 0 0 1-3.881 20.317zm-6.408-11.1l-4.84-8.377 3.486-12.985a44.669 44.669 0 0 1 5.811 4.74zm-21.83-9.544l12.981 3.479 4.835 8.377-16.621-4.455a44.584 44.584 0 0 1-1.189-7.402zm16.377-14.378l-.048.141-2.607 9.731-8.583-14.87a67.032 67.032 0 0 1 11.238 4.998zM5.969 34.282l8.582 14.868-9.729-2.607c-.048-.013-.1-.022-.149-.032a67.1 67.1 0 0 1 1.296-12.229z" fill="#707070" fill-rule="evenodd"/><path data-name="Path 19" d="M36.924 87.902l-5.517-9.555a20.374 20.374 0 0 1-13.668.7 20.654 20.654 0 0 1-12.218-9.222c-10.422-18.055-2.948-41.417-2.623-42.4a2.312 2.312 0 0 1 2.671-1.544c1.018.213 24.986 5.422 35.407 23.477a20.61 20.61 0 0 1 1.882 15.193 20.354 20.354 0 0 1-7.442 11.485l5.517 9.554zM9.524 67.51a32.805 32.805 0 0 1-1.733-3.5l18.135 4.861 3.14 5.434A16.656 16.656 0 0 1 9.529 67.51zm23.552 4.477l-3.135-5.432 4.862-18.135a32.119 32.119 0 0 1 2.159 3.25 16.652 16.652 0 0 1-3.881 20.317zm-6.408-11.1l-4.84-8.377 3.486-12.985a44.669 44.669 0 0 1 5.811 4.74zm-21.83-9.544l12.981 3.479 4.835 8.377-16.621-4.455a44.584 44.584 0 0 1-1.189-7.402zm16.377-14.378l-.048.141-2.607 9.731-8.583-14.87a67.032 67.032 0 0 1 11.238 4.998zM5.969 34.282l8.582 14.868-9.729-2.607c-.048-.013-.1-.022-.149-.032a67.1 67.1 0 0 1 1.296-12.229z" fill="#707070" fill-rule="evenodd"/><path data-name="Path 20" d="M51.088 53.892l4.286 1.746A20.373 20.373 0 0 0 69.01 54.47a20.619 20.619 0 0 0 10.839-10.804c7.868-19.308-2.724-41.433-3.177-42.365A2.321 2.321 0 0 0 73.809.136c-.976.349-24.01 8.78-31.873 28.088a20.642 20.642 0 0 0 .213 15.308 20.372 20.372 0 0 0 8.939 10.36zm24.479-11.975a31.81 31.81 0 0 0 1.242-3.707l-17.3 7.289-2.367 5.811a16.649 16.649 0 0 0 18.425-9.391zm-22.718 7.65l2.367-5.808-7.287-17.3a31.765 31.765 0 0 0-1.7 3.514c-2.58 6.319-.2 15.449 6.62 19.594zm4.833-11.875l3.652-8.959-5.219-12.384a44.522 44.522 0 0 0-5.112 5.488zm20.326-12.43L65.619 30.48l-3.646 8.958 15.859-6.681a44.789 44.789 0 0 0 .176-7.495zM59.83 13.254c.021.044.043.087.064.133l3.907 9.284 6.477-15.9a67.047 67.047 0 0 0-10.448 6.483zm14.734-4.739l-6.472 15.9 9.281-3.91c.043-.02.091-.035.139-.052a66.714 66.714 0 0 0-2.947-11.938z" fill="#707070" fill-rule="evenodd"/><path data-name="Path 21" d="M51.088 53.892l4.286 1.746A20.373 20.373 0 0 0 69.01 54.47a20.619 20.619 0 0 0 10.839-10.804c7.868-19.308-2.724-41.433-3.177-42.365A2.321 2.321 0 0 0 73.809.136c-.976.349-24.01 8.78-31.873 28.088a20.642 20.642 0 0 0 .213 15.308 20.372 20.372 0 0 0 8.939 10.36zm24.479-11.975a31.81 31.81 0 0 0 1.242-3.707l-17.3 7.289-2.367 5.811a16.649 16.649 0 0 0 18.425-9.391zm-22.718 7.65l2.367-5.808-7.287-17.3a31.765 31.765 0 0 0-1.7 3.514c-2.58 6.319-.2 15.449 6.62 19.594zm4.833-11.875l3.652-8.959-5.219-12.384a44.522 44.522 0 0 0-5.112 5.488zm20.326-12.43L65.619 30.48l-3.646 8.958 15.859-6.681a44.789 44.789 0 0 0 .176-7.495zM59.83 13.254c.021.044.043.087.064.133l3.907 9.284 6.477-15.9a67.047 67.047 0 0 0-10.448 6.483zm14.734-4.739l-6.472 15.9 9.281-3.91c.043-.02.091-.035.139-.052a66.714 66.714 0 0 0-2.947-11.938z" fill="#707070" fill-rule="evenodd"/></svg>