<svg xmlns="http://www.w3.org/2000/svg" width="24.456" height="22.232"><g data-name="Group 184" fill="#f8f8f8"><path data-name="Path 11" d="M13.2 14.532l-2.824-2.79.033-.033a19.472 19.472 0 0 0 4.124-7.259h3.257V2.221H10V-.002H7.781v2.223H0v2.212h12.417a17.555 17.555 0 0 1-3.524 5.958 17.53 17.53 0 0 1-2.568-3.724H4.1a19.512 19.512 0 0 0 3.313 5.069L1.76 17.322l1.573 1.573 5.558-5.558 3.457 3.457z"/><path data-name="Path 12" d="M19.454 8.89h-2.223l-5 13.339h2.223l1.25-3.335h5.28l1.251 3.335h2.223zm-2.918 7.781l1.806-4.819 1.806 4.819z"/></g></svg>