<svg xmlns="http://www.w3.org/2000/svg" width="769.77" height="129.971"><g data-name="Group 627"><path data-name="Path 3594" d="M404.422 97.219q7.255-13.992 15.235-20.833t15.651-6.841a13.78 13.78 0 0 1 5.7 1.036 9.323 9.323 0 0 1 3.68 2.9 11.406 11.406 0 0 1 1.969 4.457 27.061 27.061 0 0 1 .57 5.8 40.454 40.454 0 0 1-1.244 9.484 60.119 60.119 0 0 1-3.524 10.261 64.756 64.756 0 0 1-5.493 9.9 48.884 48.884 0 0 1-7.152 8.447 34.429 34.429 0 0 1-8.55 5.907 21.784 21.784 0 0 1-9.587 2.229 21.219 21.219 0 0 1-4.457-.57 10.563 10.563 0 0 1-4.923-2.747 16.722 16.722 0 0 1-3.939-6.53q-1.606-4.353-1.606-12.023a113.083 113.083 0 0 1 .933-13.992q.933-7.462 3.109-17.2-1.347.207-3.524.362t-4.249.156l.414-2.8q1.97 0 4.3-.207a17.351 17.351 0 0 0 3.887-.725 215.475 215.475 0 0 1 8.758-27.57 146.314 146.314 0 0 1 11.61-23.525 70.814 70.814 0 0 1 13.525-16.428Q442.667 0 449.922 0a11.139 11.139 0 0 1 5.131 1.088 9.58 9.58 0 0 1 3.42 2.85 12.109 12.109 0 0 1 1.918 4.094 18.639 18.639 0 0 1 .622 4.82 35.021 35.021 0 0 1-2.126 11.712 57.93 57.93 0 0 1-5.907 11.92 89.357 89.357 0 0 1-8.81 11.5 121.145 121.145 0 0 1-10.831 10.629 122.747 122.747 0 0 1-12.075 9.224 107.919 107.919 0 0 1-12.386 7.2q-.622 2.383-1.244 5.182t-1.244 5.752q-.621 2.954-1.14 5.856t-.828 5.392zM66.851 129.867a12.113 12.113 0 0 1-9.9-4.508q-3.679-4.509-3.679-11.66a52.715 52.715 0 0 1 2.592-16.376 49.837 49.837 0 0 1 7.152-14.2 38 38 0 0 1 10.675-10 24.573 24.573 0 0 1 13.163-3.783q7.877 0 12.23 4.353.311-1.762.519-4.4t.362-5.441q.156-2.8.207-5.39t.052-4.249q0-2.384-.259-5.908a54.9 54.9 0 0 0-1.088-7.411 49.374 49.374 0 0 0-2.332-7.722 26.5 26.5 0 0 0-3.939-6.892A19.164 19.164 0 0 0 86.6 21.3a17.86 17.86 0 0 0-8.551-1.917 24.013 24.013 0 0 0-3.058.259 25.008 25.008 0 0 0-4.2.985 32.029 32.029 0 0 0-4.821 2.02 30.312 30.312 0 0 0-5.027 3.266l-1.243-1.97a25.751 25.751 0 0 1 5.39-3.939 40.015 40.015 0 0 1 6.11-2.747 35.417 35.417 0 0 1 5.96-1.554 30.645 30.645 0 0 1 4.82-.467q8.187 0 13.318 3.161a22.156 22.156 0 0 1 7.981 8.4 35.553 35.553 0 0 1 3.838 11.916 94.193 94.193 0 0 1 .985 13.733 107.827 107.827 0 0 1-1.659 18.812 123.305 123.305 0 0 1-4.56 17.982 108.961 108.961 0 0 1-6.84 16.065 71.524 71.524 0 0 1-8.551 12.9 41.255 41.255 0 0 1-9.639 8.55 18.9 18.9 0 0 1-10.002 3.112zm431.266-17.723l1.866 1.554q-6.426 8.5-12.541 12.282a24.573 24.573 0 0 1-13.163 3.783q-8.4 0-13.474-5.6t-5.078-14.821a41.174 41.174 0 0 1 4.923-18.915 50.916 50.916 0 0 1 12.332-15.854q7.411-6.271 14.666-6.27a10.023 10.023 0 0 1 7 2.487 8.272 8.272 0 0 1 2.747 6.426q0 7.981-8.706 15.961t-23.739 13.578a15.1 15.1 0 0 0-.1 1.866q0 7.152 3.939 11.66a12.865 12.865 0 0 0 10.157 4.509 16.721 16.721 0 0 0 9.432-3.058 45.594 45.594 0 0 0 9.739-9.588zm-216.1.518q-6.322 8.913-12.282 13.008a22.823 22.823 0 0 1-13.215 4.094 16.677 16.677 0 0 1-13.007-5.6q-5.027-5.6-5.026-14.51a41.833 41.833 0 0 1 4.871-18.967 49.317 49.317 0 0 1 12.489-15.961q7.618-6.322 14.666-6.322a10.949 10.949 0 0 1 7.67 2.643 9.131 9.131 0 0 1 2.9 7.1 11.933 11.933 0 0 1-3.058 7.722q-3.057 3.679-6.581 3.679a3.866 3.866 0 0 1-2.8-1.244q6.737-3.006 6.737-11.194a6.348 6.348 0 0 0-1.5-4.508 5.207 5.207 0 0 0-3.99-1.606 12.392 12.392 0 0 0-7.722 3.11 33.364 33.364 0 0 0-7.307 8.654 50.606 50.606 0 0 0-5.338 11.816 43.193 43.193 0 0 0-1.917 12.7q0 7.67 3.627 12.438a11.415 11.415 0 0 0 9.535 4.768 17.394 17.394 0 0 0 9.846-3.213 45.628 45.628 0 0 0 9.95-9.846zm-239.626-.518l1.866 1.554q-6.426 8.5-12.541 12.282a24.571 24.571 0 0 1-13.163 3.783q-8.4 0-13.473-5.6T0 109.346a41.181 41.181 0 0 1 4.923-18.915 50.909 50.909 0 0 1 12.334-15.858q7.41-6.271 14.666-6.27a10.023 10.023 0 0 1 7 2.487 8.272 8.272 0 0 1 2.742 6.423q0 7.981-8.706 15.961T9.224 106.755a15.216 15.216 0 0 0-.1 1.866q0 7.152 3.939 11.66a12.867 12.867 0 0 0 10.157 4.509 16.721 16.721 0 0 0 9.432-3.058 45.593 45.593 0 0 0 9.739-9.588zm572.427-40.318l10.158-4.249-8.5 32.959q-1.556 6.115-2.123 9.587a34.86 34.86 0 0 0-.568 5.131 10.85 10.85 0 0 0 1.135 5.338 3.4 3.4 0 0 0 3.007 2.021q3.218 0 10.261-7.67l1.659 1.451-1.037 1.14q-3 3.524-5.131 5.856a43.624 43.624 0 0 1-3.575 3.576q-2.907 2.384-5.185 2.384a6.508 6.508 0 0 1-5.442-3.213 14.055 14.055 0 0 1-2.227-8.188 53.142 53.142 0 0 1 .726-7.359q.729-4.768 1.97-11.608H585.9l-6.528 28.088-6.943 2.177 10.987-57.419 9.847-4.249-6.533 27.88h23.945q.933-5.079 1.97-10.935t2.173-12.698zm-283.88 55.243l-6.841 2.177 8.188-42.183.726-3.627a25.508 25.508 0 0 0 .622-4.975q0-4.56-3.628-4.56-3.421 0-8.291 4.612a67.187 67.187 0 0 0-10.261 13.318 116.845 116.845 0 0 0-6.064 10.782 111.594 111.594 0 0 0-4.664 11.038q-2.125 5.856-4.094 13.422l-6.426 2.177 10.676-57.419 9.95-4.249-9.017 37.623q6.944-16.064 15.909-26.377t16.117-10.315q7.773 0 7.774 8.809a63.925 63.925 0 0 1-1.555 10.676l-3.42 15.443q10.053-19.278 17-27.207t13.785-7.929a7.916 7.916 0 0 1 6.012 2.28 9.091 9.091 0 0 1 2.176 6.53q0 3.421-2.073 11.816l-3.213 12.748-1.037 4.042a48.217 48.217 0 0 0-1.451 9.535 10.835 10.835 0 0 0 1.14 5.338 3.335 3.335 0 0 0 2.9 2.021q3.317 0 10.365-7.67l1.557 1.448-.933 1.14a93.614 93.614 0 0 1-8.758 9.38q-2.85 2.436-5.234 2.436-3.213 0-5.441-3.265a14.107 14.107 0 0 1-2.228-8.136 58.24 58.24 0 0 1 1.347-9.847l3.835-21.454.622-3.731a26.734 26.734 0 0 0 .622-4.975 4.062 4.062 0 0 0-1.14-3.006 4.2 4.2 0 0 0-3.109-1.14 9.014 9.014 0 0 0-5.026 1.917 29.085 29.085 0 0 0-5.856 5.856 98.606 98.606 0 0 0-6.944 10.364 140.335 140.335 0 0 0-8.4 16.427 149.621 149.621 0 0 0-6.219 18.71zM217.654 71.826l10.157-4.249-8.5 32.959q-1.555 6.115-2.125 9.587a35.246 35.246 0 0 0-.57 5.131 10.828 10.828 0 0 0 1.14 5.338 3.4 3.4 0 0 0 3.005 2.021q3.214 0 10.261-7.67l1.658 1.451-1.036 1.14q-3.006 3.524-5.131 5.856a43.026 43.026 0 0 1-3.576 3.576q-2.9 2.384-5.182 2.384a6.5 6.5 0 0 1-5.442-3.213 14.052 14.052 0 0 1-2.228-8.188 52.606 52.606 0 0 1 .725-7.359q.725-4.768 1.969-11.608h-24.042l-6.53 28.088-6.944 2.177 10.986-57.419 9.847-4.249-6.53 27.88h23.942q.933-5.079 1.969-10.935t2.177-12.698zm514.389-4.249l-10.054 40.11a38.61 38.61 0 0 0-1.348 9.126 7.641 7.641 0 0 0 2.281 5.8 8.2 8.2 0 0 0 5.906 2.177q8.809 0 18.345-14.407l.415-.622q.213-1.037.311-1.659l6.533-36.275 10.152-4.249-9.121 34.1a54.42 54.42 0 0 0-2.276 13.474 11.093 11.093 0 0 0 1.141 5.389 3.388 3.388 0 0 0 3 2.073q3.218 0 10.261-7.67l1.659 1.451-1.037 1.14a99.5 99.5 0 0 1-8.706 9.38q-2.8 2.436-5.18 2.436-3.218 0-5.442-3.265a14.071 14.071 0 0 1-2.232-8.136c0-1.037.038-2 .1-2.9q-10.774 14.3-21.347 14.3a11.637 11.637 0 0 1-8.449-3.058 10.8 10.8 0 0 1-3.16-8.136 50.228 50.228 0 0 1 1.141-9.639l7.046-36.69zm-63.429 20.21a19.646 19.646 0 0 1 4.246.415 7.366 7.366 0 0 1 3.215 1.554 6.876 6.876 0 0 1 2.02 3.161 16.52 16.52 0 0 1 .677 5.13 24.871 24.871 0 0 1-2.647 10.727 41.392 41.392 0 0 1-6.784 10.105 38.416 38.416 0 0 1-9.279 7.514 20 20 0 0 1-10 2.954 11.637 11.637 0 0 1-8.449-3.058 10.8 10.8 0 0 1-3.16-8.136 54.609 54.609 0 0 1 1.141-9.639l7.047-36.69 9.743-4.249-9.33 36.278q5.6-8.4 11.195-12.23t10.365-3.835zm-537.3-20.21l-10.053 40.11a38.718 38.718 0 0 0-1.344 9.126 7.65 7.65 0 0 0 2.28 5.8 8.2 8.2 0 0 0 5.907 2.177q8.81 0 18.345-14.407l.414-.622q.207-1.037.311-1.659l6.53-36.275 10.157-4.249-9.121 34.1a54.333 54.333 0 0 0-2.28 13.474 11.142 11.142 0 0 0 1.14 5.389 3.4 3.4 0 0 0 3.006 2.073q3.213 0 10.261-7.67l1.658 1.451-1.036 1.14a99.285 99.285 0 0 1-8.706 9.38q-2.8 2.436-5.183 2.436-3.213 0-5.441-3.265a14.1 14.1 0 0 1-2.229-8.136q0-1.555.1-2.9-10.779 14.3-21.351 14.3a11.636 11.636 0 0 1-8.447-3.058 10.8 10.8 0 0 1-3.161-8.136 50.574 50.574 0 0 1 1.14-9.639l7.048-36.69zm569.319 0l-9.121 34.1a54.472 54.472 0 0 0-2.281 13.474 11.155 11.155 0 0 0 1.141 5.389 3.4 3.4 0 0 0 3.007 2.073q3.209 0 10.261-7.67l1.66 1.45-1.037 1.14a99.5 99.5 0 0 1-8.706 9.38q-2.8 2.436-5.185 2.436-3.209 0-5.442-3.265a14.111 14.111 0 0 1-2.227-8.136 61.007 61.007 0 0 1 1.245-9.847l6.528-36.275zm-150.074 4.249l10.158-4.249-8.5 32.959q-1.555 6.115-2.123 9.587a35.046 35.046 0 0 0-.573 5.131 10.846 10.846 0 0 0 1.141 5.338 3.4 3.4 0 0 0 3.008 2.021q3.209 0 10.261-7.67l1.659 1.451-1.037 1.14q-3 3.524-5.131 5.856a43.615 43.615 0 0 1-3.575 3.576q-2.906 2.384-5.185 2.384a6.5 6.5 0 0 1-5.44-3.213 14.052 14.052 0 0 1-2.228-8.188 52.611 52.611 0 0 1 .725-7.359q.725-4.768 1.969-11.608h-24.044l-6.53 28.088-6.944 2.177 10.986-57.419L529 67.577l-6.53 27.88h23.943q.933-5.079 1.965-10.935t2.181-12.696zm-146.137 42.806a37.325 37.325 0 0 0 .259 4.3 15.154 15.154 0 0 0 1.036 4.094 8.424 8.424 0 0 0 2.177 3.11 5.182 5.182 0 0 0 3.576 1.244 12.906 12.906 0 0 0 7.151-2.229 27.478 27.478 0 0 0 6.379-5.907 47.839 47.839 0 0 0 5.338-8.4 76.8 76.8 0 0 0 4.094-9.69 73.4 73.4 0 0 0 2.638-9.741 44.811 44.811 0 0 0 .93-8.5q0-4.975-1.555-7.151a5.691 5.691 0 0 0-4.975-2.177 10.969 10.969 0 0 0-5.183 1.606 30.455 30.455 0 0 0-5.908 4.405 49.824 49.824 0 0 0-5.907 6.685 52.976 52.976 0 0 0-8.706 18.086 39.846 39.846 0 0 0-1.344 10.265zm240.869 2.181a8.706 8.706 0 0 0 2.281 6.115 8.274 8.274 0 0 0 6.428 2.485 11.308 11.308 0 0 0 5.6-1.658 18.322 18.322 0 0 0 5.338-4.82 27.208 27.208 0 0 0 4.039-7.877 33.574 33.574 0 0 0 1.6-10.831 13.007 13.007 0 0 0-1.086-5.856q-1.089-2.125-4.094-2.125a11.584 11.584 0 0 0-4.508 1.036 18.82 18.82 0 0 0-4.972 3.265 35.888 35.888 0 0 0-5.081 5.649 49.986 49.986 0 0 0-4.82 8.188 31.946 31.946 0 0 0-.725 6.429zM97.219 79.496a9.832 9.832 0 0 0-4.145-5.338 12.083 12.083 0 0 0-6.633-1.917 13.786 13.786 0 0 0-7.048 1.866 22.885 22.885 0 0 0-5.907 5.026 35.507 35.507 0 0 0-4.768 7.359 62.686 62.686 0 0 0-3.524 8.758 61.288 61.288 0 0 0-2.176 9.276 59.054 59.054 0 0 0-.725 8.966 15.368 15.368 0 0 0 2.176 8.654q2.177 3.265 6.841 3.265a10.951 10.951 0 0 0 6.581-2.436A28.761 28.761 0 0 0 84 116.549a63.211 63.211 0 0 0 5.286-8.965 87.911 87.911 0 0 0 4.2-10.105 81.945 81.945 0 0 0 2.747-9.847 40.654 40.654 0 0 0 .986-8.136zm367.731 24.771q11.194-4.975 17.205-11.09a37.841 37.841 0 0 0 6.53-8.913 18.945 18.945 0 0 0 2.487-8.6q0-4.871-4.457-4.871-6.737 0-13.63 10.624a50.939 50.939 0 0 0-8.135 22.85zm-455.726 0q11.194-4.974 17.206-11.09a37.824 37.824 0 0 0 6.53-8.913 18.945 18.945 0 0 0 2.487-8.6q0-4.871-4.457-4.871-6.737 0-13.63 10.624a50.94 50.94 0 0 0-8.136 22.85zm400.587-32.754a92.962 92.962 0 0 0 17.36-11.971 94.246 94.246 0 0 0 13.94-14.977 72.479 72.479 0 0 0 9.225-16.324 43.066 43.066 0 0 0 3.316-15.909q0-5.079-1.348-7.307t-4.767-2.228a10.339 10.339 0 0 0-6.219 2.332 32.1 32.1 0 0 0-6.115 6.271 73.031 73.031 0 0 0-5.856 9.121q-2.85 5.182-5.441 10.934t-4.82 11.66q-2.229 5.907-4.042 11.245t-3.161 9.794q-1.346 4.459-2.072 7.359zm324.1-35.55a22.472 22.472 0 0 0 8.133 6.893 19.832 19.832 0 0 0 8.553 2.229 38.593 38.593 0 0 0 4.35-.259 14.322 14.322 0 0 0 4.563-1.348 16.161 16.161 0 0 0 4.4-3.213 22.854 22.854 0 0 0 3.99-5.752l1.867 1.037a27.452 27.452 0 0 1-5.289 8.188 27.1 27.1 0 0 1-6.424 5.027 25.052 25.052 0 0 1-6.582 2.539 26.216 26.216 0 0 1-5.546.725 21.279 21.279 0 0 1-3.782-.414 30.06 30.06 0 0 1-4.558-1.244 25.488 25.488 0 0 1-4.508-2.125 12.86 12.86 0 0 1-3.63-3.161z" fill="#31415d" fill-rule="evenodd"/></g></svg>