<svg xmlns="http://www.w3.org/2000/svg" width="116.46" height="140.746"><path data-name="Path 114" d="M58.23 140.746L0 131.787V0l58.23 8.959L116.46 0v131.787zM108.582 9.652l-46.413 7.142v114.905l46.413-7.141zm-54.291 7.142L7.878 9.652v114.906l46.413 7.141zm16.99 92.779v8.441l28.668-4.162v-8.438zm-25.9 0v8.441l-28.67-4.162v-8.438zm25.9-16.821v8.441l28.668-4.159v-8.443zm-25.9 0v8.441l-28.67-4.162v-8.44zm54.54-13.49v-56.21l-28.693 4.412v56.212zm-83.183 0v-56.21l28.692 4.412v56.212zm62.368-44.568l12.936-1.99v39.329l-12.936 1.99zm-41.553 0l-12.936-1.99v39.329l12.936 1.99z" fill="#707070" fill-rule="evenodd"/></svg>