<svg xmlns="http://www.w3.org/2000/svg" width="85.465" height="84.34"><path data-name="Path 67" d="M38.28 84.34h8.927v-5.008H38.28zM26.816 71.515H58.65v-5.007H26.816zm-12.558-13.2h56.95v-5.01h-56.95zM44.9 0v13.2a18.984 18.984 0 0 1 4.62 1.238l6.982-12.093 4.337 2.5-6.974 12.088a18.568 18.568 0 0 1 3.378 3.389l11.466-6.62 2.5 4.337-11.468 6.622a18.657 18.657 0 0 1 1.232 4.616h13.976v5.008h-13.98a18.807 18.807 0 0 1-1.59 5.442h26.086v5.008H0v-5.008h25.419a18.6 18.6 0 0 1-1.6-5.442H9.853v-5.007h13.975a18.9 18.9 0 0 1 1.236-4.614L11.907 17.07l2.5-4.337 13.155 7.59a18.589 18.589 0 0 1 3.38-3.382L23.959 4.846l4.337-2.5 6.982 12.089A18.59 18.59 0 0 1 39.9 13.19V0zm8.71 39.727a13.792 13.792 0 0 0 .69-14.817 13.742 13.742 0 1 0-23.8 13.743c.21.364.443.723.693 1.075z" fill="#707070" fill-rule="evenodd"/></svg>