<svg xmlns="http://www.w3.org/2000/svg" width="159.732" height="13.11"><path data-name="Union 23" d="M78.384 13.11a57.907 57.907 0 0 0-1.279-2.844l-1.28-2.7L73.44 2.6v6.319a20.342 20.342 0 0 0 .121 2.817.4.4 0 0 0 .311.337 8.832 8.832 0 0 0 1.064.095l.095.087v.622l-.095.086c-.7-.043-1.349-.06-1.945-.06s-1.4 0-2.109.06l-.087-.086v-.632l.087-.086a8.784 8.784 0 0 0 1.072-.1.38.38 0 0 0 .3-.337 19.008 19.008 0 0 0 .121-2.817V4.122a19.142 19.142 0 0 0-.119-2.822.4.4 0 0 0-.3-.337c-.095 0-.449-.051-1.072-.095L70.8.777v-.63l.087-.077c.631 0 1.435.052 2.394.052q1.114 0 1.944-.052l.865 1.944.579 1.262 2.9 6.049 1.381-2.818 2.169-4.632c.26-.553.51-1.141.752-1.781.683 0 1.141.052 1.383.052 1.184 0 2.1 0 2.731-.052l.087.078V.8l-.087.077c-.622.044-.977.069-1.072.095a.4.4 0 0 0-.3.337 20.623 20.623 0 0 0-.123 2.831v4.813a20.484 20.484 0 0 0 .121 2.817.38.38 0 0 0 .3.337 8.985 8.985 0 0 0 1.072.095l.087.087v.6l-.087.095c-.605-.043-1.538-.06-2.809-.06s-2.229 0-2.8.06l-.087-.086v-.649l.095-.086a8.309 8.309 0 0 0 1.064-.1.388.388 0 0 0 .311-.337 20.342 20.342 0 0 0 .123-2.816V2.782l-2.031 4.157c-.12.233-.509 1.081-1.184 2.593L79 13.11zm-24.146-.157c-.319 0-.864 0-1.849.061l-.087-.087v-.587l.1-.095a1.412 1.412 0 0 0 1.157-.372c.147-.207.674-1.477 1.608-3.794L57.53 2.1c.181-.467.449-1.158.8-2.092h1.3l4.814 11.373c.19.432.363.674.51.725a2.5 2.5 0 0 0 .864.112l.087.1.008.562-.087.095c-1.348-.044-2.16-.06-2.437-.06-1.115 0-2.152 0-3.111.06l-.087-.095v-.571l.095-.1.787-.043c.337 0 .5-.139.5-.355a3.429 3.429 0 0 0-.251-.864l-.744-1.928h-4.7l-.4 1.115a6.745 6.745 0 0 0-.458 1.581c0 .233.139.372.424.416l.959.112.087.095v.58l-.087.095a71.441 71.441 0 0 0-2.166-.059zm2.083-4.969h1.944c.769.026 1.392.017 1.858 0l-1.953-4.77zM37.11 12.92v-.251l.043-.112a3.222 3.222 0 0 0 .725-.536 4.289 4.289 0 0 0 .1-1.21V4.122a19.141 19.141 0 0 0-.117-2.822.4.4 0 0 0-.3-.337c-.1 0-.449-.051-1.072-.095L36.4.777v-.63l.087-.077c.544 0 1.469.052 2.792.052H42.9c1.728 0 2.8.38 3.336 1.149a2.471 2.471 0 0 1 .415 1.408 2.716 2.716 0 0 1-1.011 2.153 3.544 3.544 0 0 1-1 .613 9.975 9.975 0 0 1-1.314.389c2.5.043 3.742 1.054 3.742 2.955a3.9 3.9 0 0 1-2.212 3.543 5.61 5.61 0 0 1-2.809.622H39a14.839 14.839 0 0 0-1.806.06zm6.446-1.763a3.155 3.155 0 0 0 .726-2.057v-.026q0-2.73-2.869-2.731h-.865V11.9a7.872 7.872 0 0 0 1.046.061 2.449 2.449 0 0 0 1.962-.804zM40.627 1.089v4.244h.864a2.178 2.178 0 0 0 2.169-1.055 2.911 2.911 0 0 0 .233-1.228v-.025c0-1.34-.7-2.005-2.092-2.005h-.143a7.541 7.541 0 0 0-1.031.069zM30.143 12.921h-1.495a.872.872 0 0 1-.51-.156 10.363 10.363 0 0 1-1.3-1.288l-4.247-4.745v2.161a20.2 20.2 0 0 0 .121 2.817.379.379 0 0 0 .311.337 8.477 8.477 0 0 0 1.063.095l.1.087v.613l-.087.1c-.605-.044-1.538-.061-2.8-.061s-2.247 0-2.808.061l-.087-.087v-.605l.087-.087a8.476 8.476 0 0 0 1.063-.095.379.379 0 0 0 .311-.337 20.342 20.342 0 0 0 .121-2.817V4.123a20.467 20.467 0 0 0-.127-2.823.4.4 0 0 0-.311-.34c-.087 0-.441-.052-1.063-.095L18.4.778v-.63l.087-.078c.587 0 1.521.052 2.808.052s2.247 0 2.8-.052l.087.078v.621l-.1.087a10.612 10.612 0 0 0-1.063.1.4.4 0 0 0-.311.336 20.479 20.479 0 0 0-.121 2.826V6.37l1.953-2c.527-.536.864-.934 1.115-1.176.6-.657.994-1.124 1.193-1.383a1.973 1.973 0 0 0 .492-.864.156.156 0 0 0-.074-.147l-.1-.087V.148l.112-.087c.665 0 1.288.052 1.876.052.4 0 .993 0 1.78-.052l.1.087v.613l-.095.077a4.146 4.146 0 0 0-1.444.251 5.936 5.936 0 0 0-1.2.864c-.613.519-1.391 1.236-2.35 2.161-.363.345-.864.812-1.444 1.383l5.186 5.41a3.953 3.953 0 0 0 2.057 1.34l.077.095v.536l-.095.112zm126.694 0c-1.27 0-2.229 0-2.8.06l-.095-.086v-.649l.1-.086a8.668 8.668 0 0 0 1.064-.1.4.4 0 0 0 .311-.337 20.342 20.342 0 0 0 .121-2.817V6.741c-.312 0-1.3-.043-2.956-.043s-2.532 0-3.016.043v2.2a20.779 20.779 0 0 0 .112 2.817.4.4 0 0 0 .311.337 8.834 8.834 0 0 0 1.063.095l.1.087v.613l-.087.095c-.605-.043-1.538-.06-2.8-.06s-2.238 0-2.809.06l-.087-.086v-.649l.087-.086a8.8 8.8 0 0 0 1.072-.1.381.381 0 0 0 .3-.337 19 19 0 0 0 .12-2.817V4.122a19.135 19.135 0 0 0-.12-2.826.4.4 0 0 0-.3-.337c-.1 0-.449-.051-1.072-.095l-.087-.087v-.63l.087-.077c.588 0 1.521.052 2.809.052s2.247 0 2.8-.052l.087.077v.63l-.1.078c-.613.043-.968.069-1.063.095a.413.413 0 0 0-.311.337 20.9 20.9 0 0 0-.112 2.826v1.496c.639 0 1.52.052 2.653.052q2.662 0 3.318-.052V4.122a20.48 20.48 0 0 0-.121-2.826.416.416 0 0 0-.311-.337c-.087 0-.449-.051-1.064-.095l-.1-.087v-.63l.095-.077q.864.052 2.8.052c1.322 0 2.256 0 2.809-.052l.087.077v.63l-.078.078c-.631.043-.993.069-1.08.095a.4.4 0 0 0-.3.337 19.138 19.138 0 0 0-.12 2.826v4.814a19.015 19.015 0 0 0 .12 2.817.38.38 0 0 0 .3.337 8.8 8.8 0 0 0 1.072.1l.087.086v.622l-.087.095c-.606-.047-1.539-.064-2.809-.064zm-19.28 0c-1.3 0-2.221 0-2.782.06l-.087-.086v-.649l.095-.086a8.437 8.437 0 0 0 1.072-.1.379.379 0 0 0 .311-.337 20.34 20.34 0 0 0 .121-2.817v-6.7l-5.7 10.768c-.622 0-1.2-.043-1.728-.043l-2.36.043-.087-.086v-.649l.087-.086a8.8 8.8 0 0 0 1.072-.1.38.38 0 0 0 .3-.337A19.007 19.007 0 0 0 128 8.91V4.122a19.266 19.266 0 0 0-.121-2.826.4.4 0 0 0-.3-.337c-.095 0-.449-.051-1.072-.095l-.087-.087v-.63l.078-.077c.941 0 1.884.052 2.817.052.613 0 1.556 0 2.8-.052l.087.077v.622l-.102.087c-.614.043-.977.069-1.064.095a.415.415 0 0 0-.311.337 20.472 20.472 0 0 0-.121 2.826v6.853l5.7-10.9c.795 0 1.331.052 1.616.052l2.5-.052.077.077v.625l-.1.087c-.622.043-.976.069-1.063.095a.4.4 0 0 0-.311.337 20.463 20.463 0 0 0-.121 2.826v4.813a20.337 20.337 0 0 0 .121 2.817.379.379 0 0 0 .311.337 8.437 8.437 0 0 0 1.072.1l.095.086v.649l-.095.068a79.502 79.502 0 0 0-2.85-.064zm-33.565 0c-1.115 0-2.152 0-3.111.06l-.077-.095v-.571l.087-.1.795-.043c.328 0 .5-.139.5-.355a3.217 3.217 0 0 0-.26-.864l-.735-1.928h-4.71l-.4 1.115a7.254 7.254 0 0 0-.458 1.581c0 .233.147.372.432.416l.925.068.095.1v.579l-.095.095c-1.124-.043-1.841-.06-2.161-.06s-.864 0-1.849.06l-.1-.086V12.3l.1-.1a1.393 1.393 0 0 0 1.149-.371c.139-.208.683-1.478 1.608-3.794L98.149 2.1c.172-.467.44-1.158.8-2.092h1.287l4.823 11.373c.181.432.354.674.5.725a2.588 2.588 0 0 0 .864.112l.077.1.009.562-.078.095a117.21 117.21 0 0 0-2.44-.055zM96.93 7.985h1.936c.795 0 1.4.017 1.875 0L98.8 3.214zM11.113 12.92c-1.115 0-2.152 0-3.111.06l-.078-.095v-.571l.087-.1.8-.043c.328 0 .5-.139.5-.355a3.294 3.294 0 0 0-.26-.864l-.737-1.93H3.6l-.4 1.116a7.226 7.226 0 0 0-.458 1.581c0 .233.148.372.433.415l.925.066.1.1v.58l-.095.095c-1.124-.043-1.841-.06-2.16-.06s-.865 0-1.85.06L0 12.885V12.3l.1-.1a1.391 1.391 0 0 0 1.149-.372c.139-.207.683-1.477 1.608-3.793l2.38-5.943c.173-.467.441-1.158.8-2.092h1.291l4.857 11.381c.181.432.355.674.51.726a2.5 2.5 0 0 0 .864.112l.077.1v.561l-.077.095a126.006 126.006 0 0 0-2.446-.055zm-7.06-4.934h1.936c.8 0 1.417.017 1.876 0L5.919 3.214zM114.171 12.9c-1.305 0-2.247 0-2.809.06l-.087-.087v-.631l.095-.095a8.169 8.169 0 0 0 1.054-.1.379.379 0 0 0 .311-.336 20.215 20.215 0 0 0 .121-2.818v-4.77a20.469 20.469 0 0 0-.121-2.826.4.4 0 0 0-.311-.337c-.087 0-.44-.052-1.063-.095l-.087-.1V.148l.095-.087c.6 0 1.513.052 2.74.052l2.191.035h1.66q2.489 0 3.241 1.261a3.174 3.174 0 0 1 .4 1.521 3.569 3.569 0 0 1-1.279 2.921 4.426 4.426 0 0 1-2.887 1.054 4.912 4.912 0 0 1-1.106-.129 3.37 3.37 0 0 0-.32-.657l.19-.2a2.241 2.241 0 0 0 .709.129 1.832 1.832 0 0 0 1.469-.648 2.746 2.746 0 0 0 .519-1.8q0-2.593-2.247-2.593a5.035 5.035 0 0 0-1.089.112 22.159 22.159 0 0 0-.087 2.982v4.818a20.354 20.354 0 0 0 .121 2.818.379.379 0 0 0 .311.336 10.562 10.562 0 0 1 1.245.1l.1.095v.605l-.095.095a55.102 55.102 0 0 0-2.984-.068z" fill="#fff"/></svg>